<svg width="300" height="300" viewBox="0 0 300 300" fill="none" xmlns="http://www.w3.org/2000/svg">
<path d="M149.999 8.57617C74.3763 8.57617 12.8564 70.096 12.8564 145.719C12.8564 221.342 74.3763 282.862 149.999 282.862C225.622 282.862 287.142 221.342 287.142 145.719C287.142 70.096 225.622 8.57617 149.999 8.57617Z" fill="#BC6C25"/>
<path d="M150 12.8633C76.7399 12.8633 17.1426 72.4606 17.1426 145.72C17.1426 218.98 76.7399 278.578 150 278.578C223.26 278.578 282.857 218.98 282.857 145.72C282.857 72.4606 223.26 12.8633 150 12.8633Z" fill="#FEFAE0"/>
<path d="M197.562 173.688L197.564 173.687C197.566 173.659 198.572 167.512 202.772 165.138C206.974 162.764 212.701 164.92 212.727 164.929L212.728 164.928L212.726 164.929L212.727 164.929L212.726 164.929C212.717 164.98 211.815 171.289 207.622 173.659C203.411 176.039 197.562 173.688 197.562 173.688Z" fill="#606C38"/>
<path d="M102.428 176.624L102.426 176.623C102.399 176.627 96.2008 177.248 92.8208 173.805C89.4407 170.36 90.0401 164.27 90.0425 164.243L90.0416 164.242L90.0429 164.244L90.0421 164.243L90.0431 164.244C90.0947 164.239 96.422 163.478 99.7963 166.915C103.185 170.366 102.428 176.624 102.428 176.624Z" fill="#606C38"/>
<g clip-path="url(#clip0)">
<path d="M88.2859 74.1687C88.2646 74.4155 79.7667 99.4541 101.465 121.153C123.164 142.852 148.449 134.331 148.449 134.331C148.449 134.331 156.969 109.047 135.27 87.3482C113.571 65.6495 88.2859 74.1687 88.2859 74.1687Z" fill="#606C38" fill-opacity="0.8"/>
<path d="M230.094 80.6369C229.834 80.6145 203.461 71.6636 180.606 94.5188C157.75 117.374 166.725 144.006 166.725 144.006C166.725 144.006 193.357 152.98 216.212 130.125C239.067 107.27 230.094 80.6369 230.094 80.6369Z" fill="#606C38"/>
<path d="M150.142 81.5374L150.147 81.5319C150.132 81.447 148.163 61.7788 159.091 51.054C170.025 40.3287 189.355 42.2308 189.441 42.2385L189.444 42.2356L189.439 42.2396L189.442 42.2371L189.439 42.2403C189.454 42.404 191.871 62.4805 180.961 73.1874C170.006 83.939 150.142 81.5374 150.142 81.5374Z" fill="#606C38" fill-opacity="0.5"/>
<path d="M149.999 164.904C138.86 164.904 129.211 171.258 124.459 180.534C121.657 180.12 118.791 179.902 115.875 179.902C89.2319 179.902 66.7772 197.829 59.9111 222.278H240.087C233.221 197.829 210.767 179.902 184.124 179.902C181.207 179.902 178.341 180.12 175.54 180.534C170.788 171.258 161.139 164.904 149.999 164.904Z" fill="#283618"/>
<path d="M243.614 221.291C240.042 208.575 232.28 197.115 221.755 189.021C215.342 184.09 207.615 180.017 200 177.926C200.321 174.147 199.584 174.176 199.584 174.176C201.606 174.176 203 171.581 205 170.426C203.75 170.009 204.584 170.009 203.334 170.426C199.579 173.122 201.667 172.093 197.917 172.926C195.219 169.856 197.27 168.021 192.872 168.021C190.849 168.021 194.167 168.759 194.584 170.843C194.584 172.865 194.584 172.509 195 174.176C195 174.593 195.834 176.595 192.872 176.852C189.999 176.448 187.079 176.243 184.124 176.243C181.927 176.243 179.714 176.361 177.52 176.595C172.409 168.305 163.935 162.826 154.366 161.539C154.39 161.516 154.415 161.496 154.439 161.472L167.817 148.095C170.214 148.659 174.368 149.405 179.602 149.405C180.731 149.405 181.912 149.37 183.134 149.291C192.444 148.691 206.19 145.328 218.803 132.715C231.415 120.102 234.779 106.357 235.379 97.0466C236.032 86.927 233.667 79.768 233.566 79.468C233.165 78.2782 232.189 77.3909 230.999 77.088L230.959 77.0767C227.065 75.9407 222.376 75.2863 217.756 75.2335C217.742 75.2335 217.728 75.2335 217.714 75.2335C215.711 75.2335 214.076 76.8456 214.053 78.8539C214.03 80.8761 215.65 82.5343 217.673 82.5578C221.692 82.6035 224.935 83.1419 227.106 83.641C227.669 86.125 228.472 90.9275 228.05 96.8807C227.227 108.473 222.374 118.787 213.624 127.536C204.874 136.286 194.56 141.14 182.969 141.962C179.585 142.202 176.574 142.046 174.149 141.763L201.002 114.909C202.432 113.479 202.432 111.16 201.002 109.73C199.572 108.3 197.254 108.3 195.823 109.73L168.97 136.583C167.974 127.917 168.626 111.679 183.196 97.1088C186.052 94.2527 189.123 91.7771 192.324 89.7516C194.033 88.6698 194.541 86.4078 193.459 84.6986C192.378 82.9899 190.116 82.4812 188.406 83.5627C184.751 85.8771 181.255 88.6922 178.017 91.9299C165.404 104.543 162.041 118.288 161.441 127.598C160.997 134.487 161.951 140 162.638 142.915L153.662 151.891V85.4204C154.084 85.4303 154.531 85.4362 155.007 85.4362C162.186 85.4362 175.033 84.1376 183.524 75.8023C194.94 64.5998 193.41 45.0387 193.098 42.0321C193.049 41.1649 192.694 40.3116 192.031 39.6488C191.379 38.9965 190.541 38.642 189.687 38.5853C187.943 38.4329 168.189 37.0007 156.525 48.4419C146.022 58.7504 146.134 75.7506 146.426 80.7469C146.369 81.0021 146.337 81.2665 146.337 81.5386V95.5323C144.169 91.9401 141.399 88.3066 137.859 84.7664C125.843 72.7506 112.747 69.5466 103.876 68.9746C94.2321 68.3528 87.4023 70.6097 87.1159 70.7061C85.9275 71.1063 85.0406 72.0801 84.737 73.2695L84.7275 73.3025C83.3582 77.9948 77.6046 102.479 98.8749 123.75C110.891 135.766 123.987 138.97 132.858 139.541C134.022 139.616 135.145 139.649 136.22 139.649C140.472 139.649 143.978 139.133 146.338 138.646V161.454C136.481 162.562 127.715 168.103 122.48 176.595C120.286 176.361 118.073 176.243 115.876 176.243C112.921 176.243 110.001 176.449 107.128 176.852C108.072 173.86 108.334 174.176 110.417 173.343C112.5 172.093 112.084 172.865 112.084 170.843C111.25 170.843 110.834 170.843 108.75 171.259C106.25 172.509 104.167 175.009 102.917 175.843C102.917 175.843 102.5 176.676 101.25 174.593C99.5835 174.176 98.3335 170.843 97.0835 172.093C98.3335 173.343 98.7502 175.009 100 175.426C100 177.926 100 177.093 99.4312 178.441C91.8169 180.531 84.6582 184.09 78.2451 189.022C67.7202 197.115 59.9573 208.576 56.3863 221.291C56.0765 222.395 56.3014 223.58 56.9935 224.493C57.6856 225.407 58.766 225.944 59.9122 225.944H240.088C241.235 225.944 242.315 225.407 243.007 224.493C243.7 223.58 243.923 222.394 243.614 221.291ZM161.655 53.6695C168.775 46.6848 180.44 45.7799 185.989 45.7784C186.141 51.4726 185.533 63.5693 178.394 70.5753C173.035 75.8352 164.974 77.5033 158.908 77.9527L169.939 66.922C171.369 65.4919 171.369 63.1731 169.939 61.743C168.509 60.313 166.191 60.313 164.76 61.743L153.915 72.5884C154.508 66.6367 156.359 58.8668 161.655 53.6695ZM104.054 118.571C87.6469 102.164 89.8167 83.7443 91.2944 77.169C93.6725 76.6383 98.1634 75.9077 103.709 76.3043C114.662 77.0855 124.409 81.6752 132.679 89.9454C140.949 98.2155 145.539 107.963 146.32 118.915C146.327 119.015 146.33 119.111 146.337 119.209V124.993C146.294 125.657 146.239 126.29 146.175 126.888L124.802 105.514C123.372 104.085 121.053 104.084 119.623 105.514C118.193 106.945 118.193 109.263 119.623 110.694L140.997 132.068C132.722 132.945 117.626 132.142 104.054 118.571ZM85.2643 218.619C88.6375 211.077 94.687 205.023 102.396 201.636C104.247 200.822 105.089 198.661 104.275 196.81C103.461 194.958 101.3 194.116 99.4488 194.931C89.0597 199.496 81.1437 208.04 77.3805 218.619H64.9744C72.9369 197.756 93.2122 183.567 115.875 183.567C118.557 183.567 121.265 183.766 123.923 184.16C125.475 184.389 127.002 183.604 127.718 182.207C132.027 173.795 140.565 168.569 150 168.569C159.434 168.569 167.972 173.795 172.281 182.207C172.997 183.604 174.526 184.39 176.076 184.16C178.734 183.767 181.441 183.567 184.124 183.567C206.787 183.567 227.062 197.756 235.025 218.619L85.2643 218.619Z" fill="black"/>
</g>
<path d="M167.084 193.329C199.964 189.929 218.334 211.663 219.167 217.496C242.917 217.496 210.417 217.496 219.584 217.496H233.751C231.667 214.996 232.084 207.079 215.001 194.163C210.834 193.329 208.751 183.329 172.917 184.579C164.167 166.663 143.334 167.912 140.344 170.829C156.458 176.521 156.667 182.913 167.084 193.329Z" fill="#606C38"/>
<defs>
<clipPath id="clip0">
<rect width="187.5" height="187.5" fill="white" transform="translate(56.25 38.4404)"/>
</clipPath>
</defs>
</svg>
